name rise30.9205peak61.366fall85.3838.mot
datacolumns 19
datarows 23
range 7.80497100000000 7.84164000000000
endheader
time	ground_force1_vx	ground_force1_vy	ground_force1_vz	ground_force1_px	ground_force1_py	ground_force1_pz	ground_force2_vx	ground_force2_vy	ground_force2_vz	ground_force2_px	ground_force2_py	ground_force2_pz	ground_torque1_x	ground_torque1_y	ground_torque1_z	ground_torque2_x	ground_torque2_y	ground_torque2_z	
7.80497100000000	-9.32591200000000	41.24923800000000	-9.47700500000000	0.32552500000000	0.00000000000000	0.08200800000000	-48.25122600000000	796.95501700000000	-52.69302800000000	0.12606400000000	0.00000000000000	-0.08984300000000	0.00000000000000	-6.13071500000000	0.00000000000000	0.00000000000000	-19.45829700000000	0.00000000000000	
7.80663900000000	-10.26029600000000	48.15355000000000	-10.61649800000000	0.33133300000000	0.00000000000000	0.08317000000000	-48.94292900000000	794.17432699999995	-52.46402000000000	0.12521600000000	0.00000000000000	-0.08975700000000	0.00000000000000	-6.94170400000000	0.00000000000000	0.00000000000000	-19.42447200000000	0.00000000000000	
7.80831800000000	-11.02802500000000	55.09583100000000	-11.63769600000000	0.33662900000000	0.00000000000000	0.08423600000000	-49.65169700000000	791.28098100000000	-52.21944600000000	0.12437100000000	0.00000000000000	-0.08966800000000	0.00000000000000	-7.68879800000000	0.00000000000000	0.00000000000000	-19.39321700000000	0.00000000000000	
7.80997300000000	-11.60420400000000	61.98346100000000	-12.51560000000000	0.34147900000000	0.00000000000000	0.08521900000000	-50.37719000000000	788.27328799999998	-51.95898800000000	0.12352900000000	0.00000000000000	-0.08957500000000	0.00000000000000	-8.35393500000000	0.00000000000000	0.00000000000000	-19.36451900000000	0.00000000000000	
7.81163700000000	-11.97406400000000	68.74795600000000	-13.23399300000000	0.34594000000000	0.00000000000000	0.08613100000000	-51.11897600000000	785.14950399999998	-51.68233400000000	0.12269000000000	0.00000000000000	-0.08948000000000	0.00000000000000	-8.92468600000000	0.00000000000000	0.00000000000000	-19.33834800000000	0.00000000000000	
7.81330300000000	-12.13282100000000	75.34690600000000	-13.78550100000000	0.35005800000000	0.00000000000000	0.08698200000000	-51.87652800000000	781.90782600000000	-51.38917800000000	0.12185300000000	0.00000000000000	-0.08938200000000	0.00000000000000	-9.39444200000000	0.00000000000000	0.00000000000000	-19.31465300000000	0.00000000000000	
7.81497000000000	-12.08474900000000	81.76345100000000	-14.17092700000000	0.35387100000000	0.00000000000000	0.08777800000000	-52.64922500000000	778.54640300000005	-51.07922600000000	0.12102000000000	0.00000000000000	-0.08928100000000	0.00000000000000	-9.76210500000000	0.00000000000000	0.00000000000000	-19.29336400000000	0.00000000000000	
7.81664100000000	-11.84166300000000	88.00373700000000	-14.39802300000000	0.35741400000000	0.00000000000000	0.08852700000000	-53.43634900000000	775.06333400000005	-50.75219300000000	0.12019000000000	0.00000000000000	-0.08917700000000	0.00000000000000	-10.03137000000000	0.00000000000000	0.00000000000000	-19.27439500000000	0.00000000000000	
7.81831100000000	-11.42104900000000	94.09291000000000	-14.47990800000000	0.36071500000000	0.00000000000000	0.08923300000000	-54.23708400000000	771.45668000000001	-50.40780800000000	0.11936300000000	0.00000000000000	-0.08906900000000	0.00000000000000	-10.20973200000000	0.00000000000000	0.00000000000000	-19.25763600000000	0.00000000000000	
7.81996900000000	-10.84405100000000	100.07024000000000	-14.43332100000000	0.36379600000000	0.00000000000000	0.08990200000000	-55.05051500000000	767.72446800000000	-50.04581600000000	0.11854000000000	0.00000000000000	-0.08895900000000	0.00000000000000	-10.30735600000000	0.00000000000000	0.00000000000000	-19.24296200000000	0.00000000000000	
7.82164100000000	-10.13350800000000	105.98393400000000	-14.27687800000000	0.36668000000000	0.00000000000000	0.09053600000000	-55.87562900000000	763.86469599999998	-49.66598000000000	0.11772100000000	0.00000000000000	-0.08884500000000	0.00000000000000	-10.33591500000000	0.00000000000000	0.00000000000000	-19.23022800000000	0.00000000000000	
7.82331600000000	-9.31218600000000	111.88610000000000	-14.02948400000000	0.36938500000000	0.00000000000000	0.09114100000000	-56.71131600000000	759.87533800000006	-49.26808500000000	0.11690500000000	0.00000000000000	-0.08872900000000	0.00000000000000	-10.30750900000000	0.00000000000000	0.00000000000000	-19.21927000000000	0.00000000000000	
7.82496900000000	-8.40132500000000	117.82825099999999	-13.70898700000000	0.37192500000000	0.00000000000000	0.09171800000000	-57.55636600000000	755.75436000000002	-48.85193600000000	0.11609500000000	0.00000000000000	-0.08860900000000	0.00000000000000	-10.23373500000000	0.00000000000000	0.00000000000000	-19.20990600000000	0.00000000000000	
7.82664100000000	-7.41954400000000	123.85759500000000	-13.33115100000000	0.37431600000000	0.00000000000000	0.09226900000000	-58.40947300000000	751.49971800000003	-48.41736300000000	0.11528800000000	0.00000000000000	-0.08848600000000	0.00000000000000	-10.12495200000000	0.00000000000000	0.00000000000000	-19.20193600000000	0.00000000000000	
7.82831200000000	-6.38214100000000	130.01428300000001	-12.90896300000000	0.37656900000000	0.00000000000000	0.09279800000000	-59.26923800000000	747.10937500000000	-47.96422600000000	0.11448700000000	0.00000000000000	-0.08836000000000	0.00000000000000	-9.98977400000000	0.00000000000000	0.00000000000000	-19.19514000000000	0.00000000000000	
7.82997400000000	-5.30076400000000	136.32962400000000	-12.45226900000000	0.37869500000000	0.00000000000000	0.09330500000000	-60.13416400000000	742.58130500000004	-47.49241100000000	0.11369100000000	0.00000000000000	-0.08823100000000	0.00000000000000	-9.83478300000000	0.00000000000000	0.00000000000000	-19.18928500000000	0.00000000000000	
7.83164000000000	-4.18341200000000	142.82525899999999	-11.96771900000000	0.38070300000000	0.00000000000000	0.09379300000000	-61.00266700000000	737.91350599999998	-47.00183600000000	0.11290000000000	0.00000000000000	-0.08809900000000	0.00000000000000	-9.66444600000000	0.00000000000000	0.00000000000000	-19.18411900000000	0.00000000000000	
7.83330300000000	-3.03471200000000	149.51315900000000	-11.45894800000000	0.38260200000000	0.00000000000000	0.09426200000000	-61.87307100000000	733.10401200000001	-46.49245300000000	0.11211600000000	0.00000000000000	-0.08796300000000	0.00000000000000	-9.48121100000000	0.00000000000000	0.00000000000000	-19.17937300000000	0.00000000000000	
7.83496900000000	-1.85639000000000	156.39631399999999	-10.92696200000000	0.38440000000000	0.00000000000000	0.09471500000000	-62.74361800000000	728.15089899999998	-45.96425000000000	0.11133700000000	0.00000000000000	-0.08782400000000	0.00000000000000	-9.28573800000000	0.00000000000000	0.00000000000000	-19.17476400000000	0.00000000000000	
7.83664100000000	-0.64788100000000	163.46992000000000	-10.37064000000000	0.38610200000000	0.00000000000000	0.09515200000000	-63.61246600000000	723.05230500000005	-45.41724800000000	0.11056500000000	0.00000000000000	-0.08768300000000	0.00000000000000	-9.07722000000000	0.00000000000000	0.00000000000000	-19.16999400000000	0.00000000000000	
7.83831800000000	0.59301100000000	170.72289400000000	-9.78731100000000	0.38771400000000	0.00000000000000	0.09557400000000	-64.47769599999999	717.80643899999995	-44.85151200000000	0.10980000000000	0.00000000000000	-0.08753800000000	0.00000000000000	-8.85376400000000	0.00000000000000	0.00000000000000	-19.16475300000000	0.00000000000000	
7.83997200000000	1.86944700000000	178.13953699999999	-9.17333200000000	0.38924300000000	0.00000000000000	0.09598100000000	-65.33731899999999	712.41159500000003	-44.26714300000000	0.10904200000000	0.00000000000000	-0.08738900000000	0.00000000000000	-8.61277700000000	0.00000000000000	0.00000000000000	-19.15871500000000	0.00000000000000	
7.84164000000000	3.18494200000000	185.70119800000001	-8.52464500000000	0.39069200000000	0.00000000000000	0.09637600000000	-66.18927400000000	706.86616800000002	-43.66428400000000	0.10829200000000	0.00000000000000	-0.08723800000000	0.00000000000000	-8.35134500000000	0.00000000000000	0.00000000000000	-19.15154600000000	0.00000000000000	
